<svg xmlns="http://www.w3.org/2000/svg" viewBox="0 0 50.8 3.969" height="15" width="192"><path d="M1.192 3.74C.762 3.528.254 2.936.135 2.508.007 2.047.01 1.827.142 1.43.573.139 2.07-.341 3.137.466c.29.22.676.733.677.902 0 .039-.427.07-.95.07h-.95l.029.544.028.543.922.027c.506.015.92.062.92.104 0 .216-.6.86-.965 1.038-.5.241-1.219.261-1.656.046zm26.192-1.756A1.984 1.984 0 0125.4 3.97a1.984 1.984 0 01-1.984-1.985A1.984 1.984 0 0125.4 0a1.984 1.984 0 011.984 1.984m23.416 0a1.984 1.984 0 01-1.984 1.985 1.984 1.984 0 01-1.985-1.985A1.984 1.984 0 0148.816 0 1.984 1.984 0 0150.8 1.984m-46.831 0A1.984 1.984 0 011.984 3.97 1.984 1.984 0 010 1.984 1.984 1.984 0 011.984 0 1.984 1.984 0 013.97 1.984m-1.985-.529h46.832v1.059H1.984z" fill="#160c48" fill-opacity=".969"/></svg>