<svg xmlns="http://www.w3.org/2000/svg" width="218" height="37" viewBox="0 0 218 37">
    <defs>
        <clipPath id="clip-path">
            <path d="M0 0H218V37H0z" class="cls-1"/>
        </clipPath>
        <clipPath id="clip-path-2">
            <path d="M0 0H169V24H0z" class="cls-1"/>
        </clipPath>
        <style>
            .cls-1{fill:none}.cls-5{fill:#fff;fill-rule:evenodd}
        </style>
    </defs>
    <g id="Компонент_3_9" clip-path="url(#clip-path)">
        <g id="Компонент_1_2" clip-path="url(#clip-path-2)" transform="translate(49 6.031)">
            <text id="DailyHoroscope" fill="#fff" font-family="Helvetica" font-size="20px" transform="translate(0 19)">
                <tspan x="0" y="0">DailyHoroscope</tspan>
            </text>
        </g>
        <g id="Сгруппировать_97">
            <path id="Контур_1" d="M243.108 337.542q.023.348.025.694a79.98 79.98 0 0 0-21.7-5.816q.176-.3.369-.588a70.764 70.764 0 0 1 21.3 5.71z" class="cls-5" transform="translate(-211.292 -319.818)"/>
            <path id="Контур_2" d="M218.314 317.207q.154.313.326.614a79.985 79.985 0 0 1 15.882-15.886q-.3-.171-.614-.325a70.786 70.786 0 0 0-15.594 15.6z" class="cls-5" transform="translate(-208.579 -293.566)"/>
            <path id="Контур_3" fill="none" fill-rule="evenodd" stroke="#fff" stroke-width="2px" d="M224.08 293.439a10.478 10.478 0 1 1-13.893 5.058 10.519 10.519 0 0 1 13.893-5.058z" transform="translate(-199.466 -284.437)"/>
            <path id="Контур_10" d="M166.794 330.847c-4.859-.434-8.248.077-8.648 1.569-.658 2.456 7.036 6.665 17.128 9.37s18.86 2.907 19.518.45c.4-1.49-2.276-3.625-6.695-5.678q.023.348.025.694c3.4 1.535 5.432 3 5.176 3.96-.467 1.744-8.338 1.16-17.521-1.3s-16.291-5.89-15.823-7.635c.257-.959 2.752-1.214 6.472-.84q.176-.3.369-.589z" class="cls-5" transform="translate(-156.281 -318.825)"/>
            <path id="Контур_11" d="M211.745 279.414c3.992-2.812 7.182-4.067 8.274-2.973 1.8 1.8-2.761 9.313-10.149 16.719s-14.88 11.976-16.678 10.174c-1.091-1.093.159-4.288 2.959-8.285q.154.314.326.615c-2.179 3.038-3.2 5.329-2.5 6.032 1.277 1.28 7.8-3.172 14.523-9.911s11.163-13.279 9.886-14.559c-.7-.7-2.99.325-6.025 2.514q-.3-.172-.614-.326z" class="cls-5" transform="translate(-186.417 -271.387)"/>
            <path id="Контур_12" d="M291.243 405.338q1.134.3 2.241.555.829-.775 1.663-1.6-1.1-.243-2.233-.527-.842.814-1.671 1.574z" class="cls-5" transform="translate(-271.929 -382.286)"/>
            <path id="Контур_13" d="M327.218 345.563a2.9 2.9 0 1 1-2.05 3.551 2.9 2.9 0 0 1 2.05-3.551z" class="cls-5" transform="translate(-301.313 -331.656)"/>
            <path id="Контур_14" d="M331.621 352.54a.945.945 0 1 1-.668 1.157.947.947 0 0 1 .668-1.157z" class="cls-5" transform="translate(-306.395 -337.776)"/>
            <path id="Контур_15" d="M201.547 266.115l1.812.932 1.565-1.3-.326 2.011 1.724 1.085-2.013.311-.5 1.975-.918-1.819-2.033.135 1.446-1.435-.757-1.891z" class="cls-5" transform="translate(-193.416 -262.436)"/>
            <path id="Контур_16" d="M245.136 244.572a15.9 15.9 0 0 0-15.693 1.289l.012-.018a19.129 19.129 0 0 1 17-4.889l-1.323 3.618z" class="cls-5" transform="translate(-218.246 -240.568)"/>
            <path id="Контур_17" d="M358.126 460.59l-1.812-.931-1.565 1.3.326-2.011-1.724-1.085 2.013-.311.5-1.975.918 1.819 2.032-.135-1.446 1.435.757 1.891z" class="cls-5" transform="translate(-325.879 -427.27)"/>
            <path id="Контур_18" d="M238.134 482.722a15.9 15.9 0 0 0 15.693-1.289l-.012.018a19.13 19.13 0 0 1-17 4.889l1.323-3.618z" class="cls-5" transform="translate(-224.647 -449.727)"/>
            <path id="Контур_19" d="M410.445 323.79l1.183 1.659 1.989-.441-1.212 1.637 1.034 1.755-1.932-.647-1.349 1.526.018-2.037-1.868-.812 1.943-.612.195-2.028z" class="cls-5" transform="translate(-373.617 -312.835)"/>
            <path id="Контур_20" d="M145.888 385.563l.933 1.309 1.569-.348-.956 1.292.816 1.385-1.524-.51-1.065 1.2.014-1.607-1.474-.641 1.533-.483.154-1.6z" class="cls-5" transform="translate(-144.201 -366.478)"/>
            <path id="Контур_21" d="M192.11 322.532a1.344 1.344 0 1 1-.95 1.646 1.346 1.346 0 0 1 .95-1.646z" class="cls-5" transform="translate(-184.952 -311.704)"/>
            <path id="Контур_22" d="M194.151 325.766a.438.438 0 1 1-.31.536.439.439 0 0 1 .31-.536z" class="cls-5" transform="translate(-187.308 -314.541)"/>
            <path id="Контур_23" d="M195.173 426.069a1.786 1.786 0 1 1-1.263 2.187 1.789 1.789 0 0 1 1.263-2.187z" class="cls-5" transform="translate(-187.328 -401.6)"/>
            <path id="Контур_24" d="M197.885 430.367a.582.582 0 1 1-.412.713.583.583 0 0 1 .412-.713z" class="cls-5" transform="translate(-190.459 -405.371)"/>
            <path id="Контур_25" d="M351.813 281.563a1.055 1.055 0 1 1-.746 1.292 1.057 1.057 0 0 1 .746-1.292z" class="cls-5" transform="translate(-323.863 -276.147)"/>
            <path id="Контур_26" d="M353.416 284.1a.344.344 0 1 1-.243.421.344.344 0 0 1 .243-.421z" class="cls-5" transform="translate(-325.714 -278.374)"/>
        </g>
    </g>
</svg>
